<mxfile host="65bd71144e" modified="2020-11-11T01:09:23.026Z" agent="5.0 (Macintosh; Intel Mac OS X 10_15_7) AppleWebKit/537.36 (KHTML, like Gecko) Code/1.50.1 Chrome/83.0.4103.122 Electron/9.2.1 Safari/537.36" version="13.6.5" etag="v_AhaWc7haDJwXcCBfTO">
    <diagram id="eLcTK__RLrw3TbCQtlxx" name="11/11">
        <mxGraphModel dx="1208" dy="860" grid="1" gridSize="10" guides="1" tooltips="1" connect="1" arrows="1" fold="1" page="1" pageScale="1" pageWidth="827" pageHeight="1169" math="0" shadow="0">
            <root>
                <mxCell id="0"/>
                <mxCell id="1" parent="0"/>
                <mxCell id="2" value="&lt;font style=&quot;font-size: 27px&quot;&gt;印刷画面の作成&lt;br&gt;シフト変更画面の作成&lt;br&gt;パート　アルバイト　などの仕事区分の作成&lt;br&gt;&lt;br&gt;制約条件に合わせて内部の変更&lt;br&gt;&lt;/font&gt;" style="rounded=0;whiteSpace=wrap;html=1;" vertex="1" parent="1">
                    <mxGeometry x="80" y="40" width="670" height="680" as="geometry"/>
                </mxCell>
            </root>
        </mxGraphModel>
    </diagram>
</mxfile>